<svg xmlns="http://www.w3.org/2000/svg" viewBox="0 0 300 150" width="300mm" height="150mm">
  <!-- Frame border -->
  <rect x="2" y="2" width="296" height="146" fill="none" stroke="#000" stroke-width="2"/>
  <!-- Moon -->
  <circle cx="250" cy="35" r="20" fill="none" stroke="#000" stroke-width="1.5"/>
  <circle cx="257" cy="28" r="18" fill="none" stroke="#000" stroke-width="0" class="moon-mask"/>
  <!-- Buildings left cluster -->
  <rect x="10" y="90" width="20" height="55" fill="none" stroke="#000" stroke-width="1.2"/>
  <rect x="12" y="95" width="4" height="6" fill="none" stroke="#000" stroke-width="0.8"/>
  <rect x="18" y="95" width="4" height="6" fill="none" stroke="#000" stroke-width="0.8"/>
  <rect x="12" y="107" width="4" height="6" fill="none" stroke="#000" stroke-width="0.8"/>
  <rect x="18" y="107" width="4" height="6" fill="none" stroke="#000" stroke-width="0.8"/>
  <rect x="12" y="119" width="4" height="6" fill="none" stroke="#000" stroke-width="0.8"/>
  <rect x="18" y="119" width="4" height="6" fill="none" stroke="#000" stroke-width="0.8"/>

  <rect x="32" y="70" width="28" height="75" fill="none" stroke="#000" stroke-width="1.2"/>
  <!-- Antenna -->
  <line x1="46" y1="70" x2="46" y2="58" stroke="#000" stroke-width="1"/>
  <line x1="40" y1="62" x2="52" y2="62" stroke="#000" stroke-width="1"/>
  <!-- Windows -->
  <rect x="36" y="75" width="5" height="5" fill="none" stroke="#000" stroke-width="0.7"/>
  <rect x="45" y="75" width="5" height="5" fill="none" stroke="#000" stroke-width="0.7"/>
  <rect x="36" y="85" width="5" height="5" fill="none" stroke="#000" stroke-width="0.7"/>
  <rect x="45" y="85" width="5" height="5" fill="none" stroke="#000" stroke-width="0.7"/>
  <rect x="36" y="95" width="5" height="5" fill="none" stroke="#000" stroke-width="0.7"/>
  <rect x="45" y="95" width="5" height="5" fill="none" stroke="#000" stroke-width="0.7"/>
  <rect x="36" y="105" width="5" height="5" fill="none" stroke="#000" stroke-width="0.7"/>
  <rect x="45" y="105" width="5" height="5" fill="none" stroke="#000" stroke-width="0.7"/>
  <rect x="36" y="115" width="5" height="5" fill="none" stroke="#000" stroke-width="0.7"/>
  <rect x="45" y="115" width="5" height="5" fill="none" stroke="#000" stroke-width="0.7"/>

  <!-- Center tall tower -->
  <rect x="120" y="40" width="40" height="105" fill="none" stroke="#000" stroke-width="1.5"/>
  <!-- Spire -->
  <polygon points="140,10 133,40 147,40" fill="none" stroke="#000" stroke-width="1"/>
  <!-- Windows grid -->
  <rect x="124" y="48" width="6" height="6" fill="none" stroke="#000" stroke-width="0.7"/>
  <rect x="134" y="48" width="6" height="6" fill="none" stroke="#000" stroke-width="0.7"/>
  <rect x="144" y="48" width="6" height="6" fill="none" stroke="#000" stroke-width="0.7"/>
  <rect x="124" y="60" width="6" height="6" fill="none" stroke="#000" stroke-width="0.7"/>
  <rect x="134" y="60" width="6" height="6" fill="none" stroke="#000" stroke-width="0.7"/>
  <rect x="144" y="60" width="6" height="6" fill="none" stroke="#000" stroke-width="0.7"/>
  <rect x="124" y="72" width="6" height="6" fill="none" stroke="#000" stroke-width="0.7"/>
  <rect x="134" y="72" width="6" height="6" fill="none" stroke="#000" stroke-width="0.7"/>
  <rect x="144" y="72" width="6" height="6" fill="none" stroke="#000" stroke-width="0.7"/>
  <rect x="124" y="84" width="6" height="6" fill="none" stroke="#000" stroke-width="0.7"/>
  <rect x="134" y="84" width="6" height="6" fill="none" stroke="#000" stroke-width="0.7"/>
  <rect x="144" y="84" width="6" height="6" fill="none" stroke="#000" stroke-width="0.7"/>

  <!-- Right cluster buildings -->
  <rect x="200" y="80" width="30" height="65" fill="none" stroke="#000" stroke-width="1.2"/>
  <rect x="233" y="95" width="22" height="50" fill="none" stroke="#000" stroke-width="1.2"/>
  <rect x="258" y="75" width="35" height="70" fill="none" stroke="#000" stroke-width="1.2"/>
  <!-- Windows right buildings -->
  <rect x="204" y="85" width="5" height="5" fill="none" stroke="#000" stroke-width="0.7"/>
  <rect x="214" y="85" width="5" height="5" fill="none" stroke="#000" stroke-width="0.7"/>
  <rect x="204" y="95" width="5" height="5" fill="none" stroke="#000" stroke-width="0.7"/>
  <rect x="214" y="95" width="5" height="5" fill="none" stroke="#000" stroke-width="0.7"/>
  <rect x="262" y="80" width="5" height="5" fill="none" stroke="#000" stroke-width="0.7"/>
  <rect x="272" y="80" width="5" height="5" fill="none" stroke="#000" stroke-width="0.7"/>
  <rect x="262" y="90" width="5" height="5" fill="none" stroke="#000" stroke-width="0.7"/>
  <rect x="272" y="90" width="5" height="5" fill="none" stroke="#000" stroke-width="0.7"/>
  <!-- Ground line -->
  <line x1="2" y1="145" x2="298" y2="145" stroke="#000" stroke-width="1.5"/>
</svg>
